<?xml version="1.0" encoding="utf-8"?>
<!-- Generator: Adobe Illustrator 24.1.2, SVG Export Plug-In . SVG Version: 6.00 Build 0)  -->
<svg version="1.1" id="Capa_1" xmlns="http://www.w3.org/2000/svg" xmlns:xlink="http://www.w3.org/1999/xlink" x="0px" y="0px"
	 viewBox="0 0 100 125" style="enable-background:new 0 0 100 125;" xml:space="preserve">
<g>
	<path d="M74.9,20.7V17c0-5.5-4.4-9.9-9.9-9.9H15.6c-5.5,0-9.9,4.4-9.9,9.9v66c0,5.5,4.4,9.9,9.9,9.9H65c5.5,0,9.9-4.4,9.9-9.9v-8.4
		l13.6,10.9l-3.6-26.4c5.6-3.8,9.4-10.2,9.4-17.5C94.3,30.6,85.7,21.6,74.9,20.7z M9,83V17c0-3.6,3-6.6,6.6-6.6H65
		c3.6,0,6.6,3,6.6,6.6v3.7c-10.8,0.8-19.3,9.9-19.3,20.9c0,7.3,3.7,13.7,9.4,17.5l-3.6,26.4l13.6-10.9V83c0,3.6-3,6.6-6.6,6.6H15.6
		C12,89.6,9,86.6,9,83z M73.3,69l-10.8,8.7l2.3-16.9c2.6,1.2,5.5,1.8,8.5,1.8s5.9-0.7,8.5-1.8l2.3,16.9L73.3,69z M73.3,59.3
		c-9.8,0-17.7-7.9-17.7-17.7s7.9-17.7,17.7-17.7S91,31.9,91,41.6S83.1,59.3,73.3,59.3z"/>
	<polygon points="39.4,26.1 39.4,24.5 39.4,22.8 23,22.8 23,24.5 23,26.1 	"/>
	<polygon points="43.4,38.9 43.4,35.6 23,35.6 23,37.2 23,38.9 	"/>
	<polygon points="32.1,51.6 32.1,50 32.1,48.4 23,48.4 23,50 23,51.6 	"/>
	<polygon points="23,61.1 23,62.8 23,64.4 48.3,64.4 48.3,62.8 48.3,61.1 	"/>
	<polygon points="23,75.5 23,77.2 43.4,77.2 43.4,73.9 23,73.9 	"/>
</g>
</svg>
