<?xml version="1.0" encoding="utf-8"?>
<!-- Generator: Adobe Illustrator 24.1.2, SVG Export Plug-In . SVG Version: 6.00 Build 0)  -->
<svg version="1.1" id="Capa_1" xmlns="http://www.w3.org/2000/svg" xmlns:xlink="http://www.w3.org/1999/xlink" x="0px" y="0px"
	 viewBox="0 0 64 80" style="enable-background:new 0 0 64 80;" xml:space="preserve">
<g>
	<path d="M61,10h-4v2h3v29h-6c-0.6,0-1,0.4-1,1v6H39v2h15c0.3,0,0.5-0.1,0.7-0.3l7-7c0.1-0.1,0.2-0.2,0.2-0.3v-0.1
		c0-0.1,0-0.2,0.1-0.3c0,0,0,0,0-0.1V11C62,10.4,61.6,10,61,10L61,10z M55,46.6V43h3.6L55,46.6z"/>
	<path d="M6,50h6v-2H6c-1.1,0-2-0.9-2-2s0.9-2,2-2h3c0.6,0,1-0.4,1-1V12h34v-2H10V5c0-0.6-0.4-1-1-1H6C3.8,4,2,5.8,2,8v38
		C2,48.2,3.8,50,6,50z M4,8c0-1.1,0.9-2,2-2h2v36H6c-0.7,0-1.4,0.2-2,0.5V8z"/>
	<path d="M46,5v32c0,0.6,0.4,1,1,1h7c0.6,0,1-0.4,1-1V5c0-0.6-0.4-1-1-1h-7C46.4,4,46,4.4,46,5z M53,6v30h-5v-2h2v-2h-2v-2h2v-2h-2
		v-2h2v-2h-2v-2h2v-2h-2v-2h2v-2h-2v-2h2v-2h-2v-2h2V8h-2V6H53z"/>
	<path d="M14.6,29.1C14.2,29.2,14,29.6,14,30v29c0,0.6,0.4,1,1,1h29c0.6,0,1-0.4,1-1c0-0.3-0.1-0.5-0.3-0.7l-29-29
		C15.4,29,15,28.9,14.6,29.1z M16,32.4L41.6,58H16V32.4z"/>
	<path d="M32.7,53.3l-12-12c-0.4-0.4-1-0.4-1.4,0C19.1,41.5,19,41.7,19,42v12c0,0.6,0.4,1,1,1h12c0.6,0,1-0.4,1-1
		C33,53.7,32.9,53.5,32.7,53.3z M21,53v-8.6l8.6,8.6H21z"/>
	<path d="M39.7,44.7l2-2c0.2-0.2,0.3-0.4,0.3-0.7V20c0-1.7-1.3-3-3-3s-3,1.3-3,3v22c0,0.3,0.1,0.5,0.3,0.7l2,2
		C38.7,45.1,39.3,45.1,39.7,44.7z M39,19c0.6,0,1,0.4,1,1v1h-2v-1C38,19.4,38.4,19,39,19z M38,41.6V23h2v18.6l-1,1L38,41.6z"/>
	<path d="M25,25h6c0.6,0,1-0.4,1-1v-6c0-0.6-0.4-1-1-1h-7c-2.2,0-4,1.8-4,4s1.8,4,4,4H25z M30,19v4h-4v-4H30z M22,21
		c0-1.1,0.9-2,2-2v4C22.9,23,22,22.1,22,21z"/>
</g>
</svg>
