<?xml version="1.0" encoding="utf-8"?>
<!-- Generator: Adobe Illustrator 24.1.3, SVG Export Plug-In . SVG Version: 6.00 Build 0)  -->
<svg version="1.1" xmlns="http://www.w3.org/2000/svg" xmlns:xlink="http://www.w3.org/1999/xlink" x="0px" y="0px"
	 viewBox="0 0 100 125" style="enable-background:new 0 0 100 125;" xml:space="preserve">
<g id="Capa_2">
</g>
<g id="Capa_1">
	<g>
		<path d="M95.5,25.4h-8.4v-5.2c0-1.1-0.9-2-2-2c-12.1,0-24,2.4-35.2,7c-11.2-4.7-23-7-35.2-7c-1.1,0-2,0.9-2,2v5.2H4.5
			c-1.1,0-2,0.9-2,2v52.5c0,1.1,0.9,2,2,2h91.1c1.1,0,2-0.9,2-2V27.3C97.5,26.3,96.6,25.4,95.5,25.4z M52,77V28.7
			c10-4.1,20.5-6.3,31.3-6.6v48.6C72.4,70.9,62,73.1,52,77z M16.8,22.1C27.6,22.4,38,24.6,48,28.7V77c-10-3.9-20.5-6.1-31.3-6.3
			L16.8,22.1L16.8,22.1z M6.4,29.3h6.5v43.4c0,1.1,0.9,2,2,2c8,0,15.8,1.2,23.4,3.3H6.4V29.3z M93.6,77.9H61.7
			c7.6-2.1,15.4-3.3,23.4-3.3c1.1,0,2-0.9,2-2V29.3h6.5V77.9z"/>
		<path d="M24.1,34.6c5.3,0.6,10.6,1.6,15.7,3.2c0.2,0.1,0.4,0.1,0.6,0.1c0.8,0,1.6-0.6,1.9-1.4c0.3-1-0.3-2.1-1.3-2.4
			c-5.4-1.6-10.9-2.7-16.4-3.3c-1.1-0.1-2,0.7-2.2,1.7C22.3,33.5,23.1,34.5,24.1,34.6z"/>
		<path d="M41,43.5c-5.4-1.6-10.9-2.7-16.4-3.3c-1.1-0.1-2,0.7-2.2,1.7c-0.1,1.1,0.7,2,1.7,2.2c5.3,0.6,10.6,1.6,15.7,3.2
			c0.2,0.1,0.4,0.1,0.6,0.1c0.8,0,1.6-0.5,1.9-1.4C42.6,44.9,42,43.8,41,43.5z"/>
		<path d="M41,53c-5.4-1.6-10.9-2.7-16.4-3.3c-1.1-0.1-2,0.7-2.2,1.7c-0.1,1.1,0.7,2,1.7,2.2c5.3,0.6,10.6,1.6,15.7,3.2
			c0.2,0.1,0.4,0.1,0.6,0.1c0.8,0,1.6-0.5,1.9-1.4C42.6,54.4,42,53.3,41,53z"/>
		<path d="M41,62.4c-5.4-1.6-10.9-2.7-16.4-3.3c-1.1-0.1-2,0.7-2.2,1.7c-0.1,1.1,0.7,2,1.7,2.2c5.3,0.6,10.6,1.6,15.7,3.2
			c0.2,0.1,0.4,0.1,0.6,0.1c0.8,0,1.6-0.5,1.9-1.4C42.6,63.8,42,62.7,41,62.4z"/>
		<path d="M75.4,30.7c-5.5,0.6-11,1.7-16.4,3.3c-1,0.3-1.6,1.4-1.3,2.4c0.3,0.8,1,1.4,1.9,1.4c0.2,0,0.4,0,0.6-0.1
			c5.2-1.5,10.5-2.6,15.7-3.2c1.1-0.1,1.9-1.1,1.7-2.2C77.5,31.4,76.5,30.6,75.4,30.7z"/>
		<path d="M75.4,40.2c-5.5,0.6-11.1,1.7-16.4,3.3c-1,0.3-1.6,1.4-1.3,2.4c0.3,0.8,1,1.4,1.9,1.4c0.2,0,0.4,0,0.6-0.1
			c5.1-1.5,10.4-2.6,15.7-3.2c1.1-0.1,1.9-1.1,1.7-2.2C77.5,40.8,76.5,40,75.4,40.2z"/>
		<path d="M75.4,49.6C69.9,50.2,64.3,51.4,59,53c-1,0.3-1.6,1.4-1.3,2.4c0.3,0.8,1,1.4,1.9,1.4c0.2,0,0.4,0,0.6-0.1
			c5.1-1.5,10.4-2.6,15.7-3.2c1.1-0.1,1.9-1.1,1.7-2.2C77.5,50.3,76.5,49.5,75.4,49.6z"/>
		<path d="M75.4,59.1c-5.5,0.6-11.1,1.7-16.4,3.3c-1,0.3-1.6,1.4-1.3,2.4c0.3,0.8,1,1.4,1.9,1.4c0.2,0,0.4,0,0.6-0.1
			c5.1-1.5,10.4-2.6,15.7-3.2c1.1-0.1,1.9-1.1,1.7-2.2C77.5,59.8,76.5,59,75.4,59.1z"/>
	</g>
</g>
</svg>
