<?xml version="1.0" encoding="utf-8"?>
<!-- Generator: Adobe Illustrator 24.1.2, SVG Export Plug-In . SVG Version: 6.00 Build 0)  -->
<svg version="1.1" id="Capa_1" xmlns="http://www.w3.org/2000/svg" xmlns:xlink="http://www.w3.org/1999/xlink" x="0px" y="0px"
	 viewBox="0 0 100 125" style="enable-background:new 0 0 100 125;" xml:space="preserve">
<path d="M99.3,65c-0.2-0.3-4.6-6.9-16-4.3C76.4,62.3,71,64.1,68,65.1c-0.3-2.7-2.6-4.8-5.3-5L21,52v-2.4c0-0.9-0.7-1.6-1.6-1.6h-17
	c-0.9,0-1.6,0.7-1.6,1.6v32.6c0,0.9,0.7,1.6,1.6,1.6h17c0.9,0,1.6-0.7,1.6-1.6v-3.4c6.4,2.5,24.6,9.4,34,9.4
	c11.5,0,42.5-20.1,43.8-21C99.6,66.8,99.8,65.8,99.3,65z M4,80.6V51.2h13.8v2.1l0,0v23l0,0v4.2L4,80.6L4,80.6z M55,85
	c-9.5,0-29.4-7.8-34-9.7v-20l41.4,8.1c1.4,0,2.5,1.1,2.5,2.5s-1.1,2.5-2.5,2.5H39.2c-0.9,0-1.6,0.7-1.6,1.6s0.7,1.6,1.6,1.6h23.3
	c2,0,3.8-1.1,4.8-2.7c1.8-0.7,8.2-3.1,16.8-5c6.2-1.4,9.7,0.4,11.4,1.7C88.9,69.8,64.2,85,55,85z"/>
<path d="M92.5,26.4c0.3-0.4,0.5-0.9,0.4-1.4l-1.3-12.4c-0.1-0.5-0.3-1-0.7-1.3c-0.4-0.3-0.9-0.5-1.4-0.4l-13,1.4
	c-0.5,0.1-1,0.3-1.3,0.7s-0.5,0.9-0.4,1.4s0.3,1,0.7,1.3c0.4,0.3,0.9,0.5,1.4,0.4l9-1L70.5,33.8l-10-9.7c-0.4-0.4-0.8-0.5-1.4-0.5
	c-0.5,0-1,0.3-1.3,0.6l-14.9,17c-0.3,0.4-0.5,0.9-0.5,1.4s0.3,1,0.6,1.3c0.4,0.3,0.9,0.5,1.4,0.4c0.5,0,1-0.3,1.3-0.6l13.6-15.5
	l10,9.8c0.4,0.4,0.9,0.6,1.4,0.5c0.5,0,1-0.3,1.4-0.7l16.3-19.7l0.8,7.4c0.1,0.5,0.3,1,0.7,1.3c0.4,0.3,0.9,0.4,1.4,0.4
	C91.7,27.1,92.2,26.8,92.5,26.4z"/>
</svg>
