<?xml version="1.0" encoding="utf-8"?>
<!-- Generator: Adobe Illustrator 24.1.2, SVG Export Plug-In . SVG Version: 6.00 Build 0)  -->
<svg version="1.1" id="Capa_1" xmlns="http://www.w3.org/2000/svg" xmlns:xlink="http://www.w3.org/1999/xlink" x="0px" y="0px"
	 viewBox="0 0 64 80" style="enable-background:new 0 0 64 80;" xml:space="preserve">
<path d="M14.7,42.9c0.4,0.4,0.8,0.7,1.3,0.9c0.2,3.3,0.9,6.6,2.1,9.7c0.5,1.2,0.8,2.6,0.8,3.9V61c0,1.7,1.3,3,3,3h12
	c1.7,0,3-1.3,3-3s0.6-3.4,1.7-4.7l6.5-8.1c0.1-0.1,0.2-0.2,0.3-0.4s0.2-0.2,0.3-0.3s0.2-0.3,0.3-0.4s0.2-0.2,0.3-0.4
	s0.2-0.3,0.2-0.4c0.1-0.1,0.1-0.3,0.2-0.4c0.1-0.2,0.1-0.3,0.2-0.5c0-0.1,0.1-0.3,0.2-0.4c0.1-0.2,0.1-0.3,0.1-0.5
	c0-0.1,0.1-0.3,0.1-0.4c0-0.2,0.1-0.4,0.1-0.5s0-0.3,0.1-0.4c0-0.2,0-0.4,0-0.6c0-0.1,0-0.2,0-0.3c0-0.3,0-0.6-0.1-0.9l0,0l-0.1-0.5
	l-1-6.5c-0.1-0.7-0.3-1.4-0.6-2l0,0c0,0,0-0.1-0.1-0.1c-0.9-1.9-2.5-3.4-4.5-4.1l-3-1.2l3.5-3.4L45,20c0.2-0.2,0.6-0.3,0.9-0.3
	c5.1,1.1,10.1-1.9,11.6-6.9c0.4-1.3,0.5-2.7,0.4-4c-0.1-0.8-0.6-1.4-1.3-1.7c-0.7-0.3-1.5-0.1-2.1,0.5l-2.8,2.8
	c-0.4,0.4-1,0.4-1.4,0l-2.8-2.8c-0.4-0.4-0.4-1,0-1.4l0,0l2.8-2.8C50.8,2.9,51,2,50.8,1.3S49.9,0.1,49.1,0
	c-4.9-0.6-9.5,2.6-10.8,7.4c-0.4,1.5-0.4,3.1-0.1,4.6c0.1,0.3,0,0.7-0.3,0.9l-5.8,5.7c-1.3-1.8-3.8-2.1-5.6-0.8
	c-0.8,0.6-1.3,1.4-1.5,2.4c-2.1-0.6-4.3,0.6-4.9,2.8c-0.2,0.8-0.2,1.7,0.1,2.5c-0.1,0-0.2,0-0.2,0c-2.2,0.3-3.7,2.4-3.3,4.6
	c0.1,0.4,0.2,0.8,0.4,1.2c-1.1,0.3-2,1.2-2.5,2.2c-0.4,0.8-0.4,1.8-0.2,2.7C12.8,38.2,12.9,41.1,14.7,42.9L14.7,42.9z M15.6,38.1
	c0.1,0,0.1,0.1,0.2,0.1c0.1,0.1,0.2,0.2,0.3,0.2c0.2,0.1,0.4,0.2,0.6,0.3l4,1.7c0.2,0.1,0.4,0.1,0.5,0.2l-0.8,0.8
	c-0.1,0.1-0.3,0.2-0.4,0.3l-0.1,0.1c-0.1,0.1-0.2,0.1-0.3,0.2c-0.1,0-0.1,0.1-0.2,0.1s-0.3,0.1-0.4,0.1s-0.2,0-0.3,0
	c-0.1,0-0.1,0-0.2,0c-0.4,0-0.8,0-1.1-0.1l0,0c-1.6-0.5-2.4-2.2-1.9-3.8C15.5,38.3,15.5,38.2,15.6,38.1L15.6,38.1z M42.4,31.2
	c1,0.9,1.6,2.1,1.8,3.4l1.1,7c0,0.2,0.1,0.5,0.1,0.7c0.1,1.4-0.4,2.8-1.3,3.9c-0.1,0.2-0.3,0.4-0.5,0.5c0,0,0,0.1-0.1,0.1L37.1,55
	c-1.4,1.7-2.1,3.8-2.1,6c0,0.6-0.4,1-1,1H22c-0.6,0-1-0.4-1-1v-3.5c0-1.6-0.3-3.2-1-4.7c-1.1-2.7-1.7-5.5-1.9-8.4l0,0h0.1
	c0.2,0,0.4,0,0.6-0.1c0.1,0,0.2,0,0.3,0c0.2,0,0.5-0.1,0.7-0.2c0.1,0,0.2,0,0.3-0.1c0.3-0.1,0.5-0.2,0.7-0.4c0.1,0,0.1,0,0.2-0.1
	c0.3-0.2,0.6-0.4,0.8-0.6l5.6-5.5c0.6-0.2,1.2-0.5,1.7-1c0,0,0,0,0.1-0.1c0.2-0.1,0.3-0.3,0.4-0.5c0.3-0.4,0.6-1,0.7-1.5
	c0.3,0,0.6,0,0.9-0.1c0.7,0.7,1.6,1.2,2.6,1.6l2.4,0.9c0.5,0.2,0.9,0.7,1,1.2c0.1,0.7-0.3,1.4-1,1.6c-5.4,2-8.4,5.4-9,10.2
	c-0.1,0.5,0.3,1.1,0.8,1.1c0.5,0.1,1.1-0.3,1.1-0.8l0,0c0.5-4,3.1-6.8,7.7-8.6c1.8-0.7,2.8-2.7,2.1-4.5c-0.3-1-1.1-1.7-2.1-2.1
	L34.4,34c-0.9-0.3-1.6-0.8-2.2-1.6c-0.1-0.2-0.2-0.3-0.3-0.5c-0.1-0.1-0.1-0.2-0.2-0.3c-0.1-0.2-0.2-0.4-0.3-0.6
	c-0.1-0.1-0.1-0.3-0.1-0.4s-0.1-0.2-0.1-0.4c0-0.1-0.1-0.3-0.1-0.5c0-0.1,0-0.3,0-0.4v-0.1c0-0.2,0-0.4,0-0.6c0-0.1,0-0.1,0-0.2
	c0,0,0-0.1,0-0.2c0-0.3,0.1-0.6,0.2-0.8c0.2-0.5,0.7-0.8,1.2-0.6l7.9,2.9C41.2,30.2,41.9,30.7,42.4,31.2z M39.4,14.4
	c0.7-0.7,1-1.7,0.8-2.7c-0.9-4,1.5-8.1,5.5-9.3c1-0.3,2.1-0.4,3.2-0.3l-2.8,2.8c-1.2,1.2-1.2,3.1,0,4.2l2.8,2.8
	c1.2,1.1,3.1,1.1,4.2,0L55.9,9l0,0c0.1,1.1,0,2.2-0.3,3.2c-1.2,4-5.2,6.4-9.3,5.5c-1-0.2-2,0.1-2.7,0.8l-7.1,7c0,0,0,0,0-0.1
	c-0.1-0.3-0.2-0.5-0.4-0.7l0,0l-2.8-4.5L39.4,14.4z M27.9,19.4c0.9-0.6,2.2-0.3,2.8,0.6l0.5,0.8l0,0l3,4.7l-1-0.4
	c-0.8-0.3-1.6-0.2-2.3,0.1c-0.1,0.1-0.2,0.1-0.3,0.2l-3.5-3.9C26.9,20.7,27.2,19.9,27.9,19.4z M22.6,22.7c0.8-0.8,2.1-0.8,2.8,0l0,0
	l3.9,4.4c-0.1,0.2-0.1,0.3-0.1,0.5c-0.4,1.5-0.3,3.2,0.4,4.6l-5.5-5.1l-1.6-1.6C21.8,24.7,21.8,23.5,22.6,22.7L22.6,22.7L22.6,22.7z
	 M19,28.3c0.6-0.9,1.9-1.1,2.8-0.4l0,0l1,0.8l5.4,5.1l0,0c0,0.4-0.2,0.7-0.4,1l0,0c-0.1,0.1-0.1,0.2-0.2,0.3l0,0
	c-0.6,0.5-1.3,0.7-2,0.4l-5.4-3.8l0,0l-0.8-0.5C18.6,30.5,18.4,29.2,19,28.3L19,28.3z M16.4,34.3c0.4-1,1.6-1.5,2.6-1h0.1l5.1,3.6
	c0,0.3,0,0.5-0.1,0.8c-0.4,1-1.6,1.5-2.6,1l0,0l-4-1.7l0,0c-0.1-0.1-0.2-0.1-0.3-0.2l0,0c-0.3-0.2-0.5-0.5-0.6-0.7l0,0
	c0,0,0-0.1-0.1-0.1C16.2,35.4,16.2,34.8,16.4,34.3z"/>
<path d="M25.6,11.8c-0.1,0.2,0,0.5,0.2,0.7l2,1c0.2,0.1,0.5,0,0.7-0.2c0.1-0.2,0-0.5-0.2-0.7l0,0l-2-1C26,11.4,25.7,11.5,25.6,11.8z
	"/>
<path d="M29,10.5c0.3,0,0.5-0.2,0.5-0.5c0-0.1-0.1-0.3-0.1-0.4l-2-2c-0.2-0.2-0.5-0.2-0.7,0s-0.2,0.5,0,0.7l2,2
	C28.7,10.4,28.9,10.5,29,10.5z"/>
<path d="M32.5,10V9c0-0.3-0.2-0.5-0.5-0.5S31.5,8.7,31.5,9v1c0,0.3,0.2,0.5,0.5,0.5S32.5,10.3,32.5,10z"/>
</svg>
